<svg width="372" height="97" viewBox="0 0 372 97" fill="none" xmlns="http://www.w3.org/2000/svg">
<path d="M96.0228 47.6352C96.1654 66.6025 84.9835 84.6534 66.3813 92.3587C47.7791 100.064 27.1081 95.207 13.797 81.6943L96.0228 47.6352Z" fill="#171717"/>
<path d="M29.6437 3.66629C54.1354 -6.47842 82.2139 5.15206 92.3587 29.6437C93.9478 33.4799 95.0023 37.4043 95.5571 41.3338L9.6705 76.9092C7.28424 73.7383 5.25532 70.2175 3.66632 66.3813C-6.47844 41.8896 5.15202 13.8111 29.6437 3.66629Z" fill="#171717"/>
<path d="M345.762 85.5125C340.449 85.5125 335.762 84.325 331.699 81.95C327.637 79.5125 324.48 76.1687 322.23 71.9187C320.043 67.6062 318.949 62.7 318.949 57.2C318.949 51.7625 320.074 46.8562 322.324 42.4812C324.637 38.1062 327.762 34.7 331.699 32.2625C335.699 29.7625 340.199 28.5125 345.199 28.5125C350.137 28.5125 354.543 29.7625 358.418 32.2625C362.355 34.7625 365.418 38.2625 367.605 42.7625C369.793 47.2625 370.887 52.45 370.887 58.325V60.0125H330.012C330.512 65.2 332.137 69.2625 334.887 72.2C337.699 75.075 341.355 76.5125 345.855 76.5125C349.043 76.5125 351.762 75.825 354.012 74.45C356.324 73.0125 357.949 70.8875 358.887 68.075H369.855C368.668 73.5125 365.887 77.7937 361.512 80.9187C357.137 83.9812 351.887 85.5125 345.762 85.5125ZM359.262 51.6687C358.762 47.1062 357.355 43.6062 355.043 41.1687C352.73 38.6687 349.543 37.4187 345.48 37.4187C341.355 37.4187 337.98 38.6687 335.355 41.1687C332.73 43.6687 331.043 47.1687 330.293 51.6687H359.262Z" fill="#171717"/>
<path d="M266.355 30.0125H277.418V37.9812C279.168 34.9187 281.48 32.575 284.355 30.95C287.293 29.325 290.637 28.5125 294.387 28.5125C299.887 28.5125 304.324 30.2 307.699 33.575C311.074 36.95 312.762 41.6687 312.762 47.7312V84.0125H301.512V49.1375C301.512 45.95 300.605 43.325 298.793 41.2625C296.98 39.1375 294.324 38.075 290.824 38.075C286.887 38.075 283.699 39.4187 281.262 42.1062C278.824 44.7312 277.605 48.1062 277.605 52.2312V84.0125H266.355V30.0125Z" fill="#171717"/>
<path d="M257.824 84.0125H246.762V76.1375C245.012 79.2 242.699 81.5437 239.824 83.1687C237.012 84.7312 233.762 85.5125 230.074 85.5125C224.699 85.5125 220.324 83.825 216.949 80.45C213.637 77.075 211.98 72.3562 211.98 66.2937V30.0125H223.23V64.8875C223.23 68.075 224.105 70.7312 225.855 72.8562C227.668 74.9187 230.262 75.95 233.637 75.95C237.449 75.95 240.543 74.6375 242.918 72.0125C245.355 69.325 246.574 65.9187 246.574 61.7937V30.0125H257.824V84.0125Z" fill="#171717"/>
<path d="M144.012 12.0125H169.043C176.605 12.0125 183.105 13.45 188.543 16.325C194.043 19.2 198.23 23.3562 201.105 28.7937C204.043 34.1687 205.512 40.575 205.512 48.0125C205.512 55.45 204.043 61.8875 201.105 67.325C198.23 72.7 194.043 76.825 188.543 79.7C183.105 82.575 176.605 84.0125 169.043 84.0125H144.012V12.0125ZM168.012 73.8875C176.137 73.8875 182.418 71.6375 186.855 67.1375C191.293 62.6375 193.512 56.2625 193.512 48.0125C193.512 39.7625 191.293 33.3875 186.855 28.8875C182.418 24.3875 176.137 22.1375 168.012 22.1375H155.543V73.8875H168.012Z" fill="#171717"/>
</svg>
